<svg width="128" height="128" viewBox="0 0 128 128" fill="none" xmlns="http://www.w3.org/2000/svg">
<g clip-path="url(#clip0_1_3)">
<path d="M20.1816 81.375C20.1816 91.082 23.2578 98.8978 29.4102 104.822C35.5625 110.701 43.8112 113.641 54.1562 113.641C60.3086 113.641 65.4811 112.592 69.6738 110.496C73.9121 108.4 77.1022 105.984 79.2441 103.25H79.3809V112H103.717V12.4004H79.3125V57.3809C77.3073 54.8743 74.1855 52.6641 69.9473 50.75C65.709 48.7904 60.4681 47.8333 54.2246 47.8789C43.9251 47.8333 35.6764 50.7728 29.4785 56.6973C23.2806 62.5762 20.1816 70.2096 20.1816 79.5977V81.375ZM45.8164 81.2383V80.0762C45.8164 72.9212 47.1152 66.9967 49.7129 62.3027C52.3561 57.6087 56.5488 55.2617 62.291 55.2617C66.347 55.2617 69.8105 56.082 72.6816 57.7227C75.5527 59.3633 77.5807 61.3229 78.7656 63.6016V97.5078C77.7174 99.6953 75.7578 101.701 72.8867 103.523C70.0612 105.346 66.5293 106.258 62.291 106.258C56.64 106.258 52.4701 103.956 49.7812 99.3535C47.138 94.7507 45.8164 88.7122 45.8164 81.2383Z" fill="black"/>
</g>
<defs>
<clipPath id="clip0_1_3">
<rect width="128" height="128" fill="white"/>
</clipPath>
</defs>
</svg>
